<svg width="40" height="40" viewBox="0 0 40 40" fill="none" xmlns="http://www.w3.org/2000/svg">
<circle cx="20" cy="20" r="20" fill="white"/>
<path fill-rule="evenodd" clip-rule="evenodd" d="M20 38C24.4183 38 28 34.4183 28 30C28 25.5817 24.4183 22 20 22C15.5817 22 12 25.5817 12 30C12 34.4183 15.5817 38 20 38ZM38 20C38 27.1305 33.8539 33.2926 27.841 36.207C29.1928 34.5017 30 32.3451 30 30C30 25.7257 27.3184 22.0778 23.5457 20.6468C25.4209 19.467 26.667 17.3791 26.667 15C26.667 11.3181 23.6822 8.33337 20.0003 8.33337C16.3184 8.33337 13.3337 11.3181 13.3337 15C13.3337 17.379 14.5797 19.4668 16.4547 20.6467C12.6818 22.0775 10 25.7256 10 30C10 32.3451 10.8072 34.5017 12.159 36.207C6.1461 33.2926 2 27.1305 2 20C2 10.0589 10.0589 2 20 2C29.9411 2 38 10.0589 38 20ZM20 40C31.0457 40 40 31.0457 40 20C40 8.9543 31.0457 0 20 0C8.9543 0 0 8.9543 0 20C0 31.0457 8.9543 40 20 40ZM20.0003 19.6667C22.5776 19.6667 24.667 17.5774 24.667 15C24.667 12.4227 22.5776 10.3334 20.0003 10.3334C17.423 10.3334 15.3337 12.4227 15.3337 15C15.3337 17.5774 17.423 19.6667 20.0003 19.6667Z" fill="#A2A4B9"/>
</svg>
