<svg width="134" height="119" viewBox="0 0 134 119" fill="none" xmlns="http://www.w3.org/2000/svg">
<path d="M112.185 7.68839C118.847 13.4499 124.146 20.6053 127.704 28.6427C131.262 36.6801 132.99 45.4009 132.766 54.181L75.0155 52.7267C74.1689 52.7053 73.7307 51.7071 74.288 51.0692L112.185 7.68839Z" fill="#FFAA00"/>
<path d="M100.706 43.6443H98.8955V38.6872L98.913 37.8728L98.9423 36.9821C98.6416 37.2829 98.4326 37.4802 98.3154 37.5739L97.331 38.365L96.458 37.2751L99.2177 35.0779H100.706V43.6443ZM106.202 38.1716C107.03 38.1716 107.688 38.404 108.177 38.8689C108.669 39.3337 108.915 39.9704 108.915 40.779C108.915 41.7361 108.62 42.4724 108.03 42.988C107.44 43.5036 106.597 43.7614 105.499 43.7614C104.546 43.7614 103.776 43.6071 103.19 43.2986V41.7341C103.499 41.8982 103.858 42.0329 104.269 42.1384C104.679 42.24 105.067 42.2907 105.435 42.2907C106.54 42.2907 107.093 41.8376 107.093 40.9314C107.093 40.0681 106.52 39.6364 105.376 39.6364C105.169 39.6364 104.94 39.6579 104.69 39.7009C104.44 39.74 104.237 39.7829 104.081 39.8298L103.36 39.4431L103.683 35.0779H108.329V36.613H105.27L105.112 38.2946L105.317 38.2536C105.556 38.1989 105.851 38.1716 106.202 38.1716ZM111.306 37.6443C111.306 38.1404 111.349 38.5114 111.435 38.7575C111.524 38.9997 111.667 39.1208 111.862 39.1208C112.237 39.1208 112.425 38.6286 112.425 37.6443C112.425 36.6677 112.237 36.1794 111.862 36.1794C111.667 36.1794 111.524 36.3005 111.435 36.5427C111.349 36.781 111.306 37.1482 111.306 37.6443ZM113.901 37.6325C113.901 38.531 113.727 39.2068 113.38 39.6599C113.032 40.1091 112.522 40.3337 111.851 40.3337C111.206 40.3337 110.708 40.1032 110.356 39.6423C110.005 39.1775 109.829 38.5075 109.829 37.6325C109.829 35.8474 110.503 34.9548 111.851 34.9548C112.511 34.9548 113.017 35.1872 113.368 35.6521C113.724 36.113 113.901 36.7732 113.901 37.6325ZM117.933 35.0779L113.181 43.6443H111.774L116.526 35.0779H117.933ZM117.306 41.0661C117.306 41.5622 117.349 41.9333 117.435 42.1794C117.524 42.4216 117.667 42.5427 117.862 42.5427C118.237 42.5427 118.425 42.0505 118.425 41.0661C118.425 40.0896 118.237 39.6013 117.862 39.6013C117.667 39.6013 117.524 39.7224 117.435 39.9646C117.349 40.2029 117.306 40.57 117.306 41.0661ZM119.901 41.0544C119.901 41.9489 119.727 42.6228 119.38 43.0759C119.032 43.5251 118.522 43.7497 117.851 43.7497C117.206 43.7497 116.708 43.5193 116.356 43.0583C116.005 42.5935 115.829 41.9255 115.829 41.0544C115.829 39.2693 116.503 38.3767 117.851 38.3767C118.511 38.3767 119.017 38.6091 119.368 39.0739C119.724 39.5349 119.901 40.195 119.901 41.0544Z" fill="white"/>
<path d="M119 59.5C119 73.0251 114.392 86.1466 105.936 96.7019C97.4792 107.257 85.6789 114.617 72.4795 117.567C59.2802 120.517 45.4695 118.883 33.3236 112.933C21.1777 106.982 11.4215 97.0717 5.66279 84.8339C-0.0959032 72.596 -1.51338 58.7614 1.64399 45.61C4.80135 32.4586 12.3451 20.7754 23.032 12.4858C33.7189 4.19617 46.9112 -0.2051 60.4346 0.00734022C73.958 0.219781 87.0055 5.03325 97.4267 13.6545L59.5 59.5H119Z" fill="#004DFF"/>
<path d="M28.6699 78.3223C29.4902 78.3223 30.1504 78.5098 30.6504 78.8848C31.1543 79.2559 31.4062 79.7578 31.4062 80.3906C31.4062 80.8281 31.2852 81.2188 31.043 81.5625C30.8008 81.9023 30.4102 82.207 29.8711 82.4766C30.5117 82.8203 30.9707 83.1797 31.248 83.5547C31.5293 83.9258 31.6699 84.334 31.6699 84.7793C31.6699 85.4824 31.3945 86.0488 30.8438 86.4785C30.293 86.9043 29.5684 87.1172 28.6699 87.1172C27.7324 87.1172 26.9961 86.918 26.4609 86.5195C25.9258 86.1211 25.6582 85.5566 25.6582 84.8262C25.6582 84.3379 25.7871 83.9043 26.0449 83.5254C26.3066 83.1465 26.7246 82.8125 27.2988 82.5234C26.8105 82.2148 26.459 81.8848 26.2441 81.5332C26.0293 81.1816 25.9219 80.7969 25.9219 80.3789C25.9219 79.7656 26.1758 79.2695 26.6836 78.8906C27.1914 78.5117 27.8535 78.3223 28.6699 78.3223ZM27.334 84.7207C27.334 85.0566 27.4512 85.3184 27.6855 85.5059C27.9199 85.6934 28.2402 85.7871 28.6465 85.7871C29.0957 85.7871 29.4316 85.6914 29.6543 85.5C29.877 85.3047 29.9883 85.0488 29.9883 84.7324C29.9883 84.4707 29.877 84.2266 29.6543 84C29.4355 83.7695 29.0781 83.5254 28.582 83.2676C27.75 83.6504 27.334 84.1348 27.334 84.7207ZM28.6582 79.6465C28.3496 79.6465 28.0996 79.7266 27.9082 79.8867C27.7207 80.043 27.627 80.2539 27.627 80.5195C27.627 80.7539 27.7012 80.9648 27.8496 81.1523C28.002 81.3359 28.2754 81.5254 28.6699 81.7207C29.0527 81.541 29.3203 81.3574 29.4727 81.1699C29.625 80.9824 29.7012 80.7656 29.7012 80.5195C29.7012 80.25 29.6035 80.0371 29.4082 79.8809C29.2129 79.7246 28.9629 79.6465 28.6582 79.6465ZM35.6895 81.5273C36.5176 81.5273 37.1758 81.7598 37.6641 82.2246C38.1562 82.6895 38.4023 83.3262 38.4023 84.1348C38.4023 85.0918 38.1074 85.8281 37.5176 86.3438C36.9277 86.8594 36.084 87.1172 34.9863 87.1172C34.0332 87.1172 33.2637 86.9629 32.6777 86.6543V85.0898C32.9863 85.2539 33.3457 85.3887 33.7559 85.4941C34.166 85.5957 34.5547 85.6465 34.9219 85.6465C36.0273 85.6465 36.5801 85.1934 36.5801 84.2871C36.5801 83.4238 36.0078 82.9922 34.8633 82.9922C34.6562 82.9922 34.4277 83.0137 34.1777 83.0566C33.9277 83.0957 33.7246 83.1387 33.5684 83.1855L32.8477 82.7988L33.1699 78.4336H37.8164V79.9688H34.7578L34.5996 81.6504L34.8047 81.6094C35.043 81.5547 35.3379 81.5273 35.6895 81.5273ZM40.793 81C40.793 81.4961 40.8359 81.8672 40.9219 82.1133C41.0117 82.3555 41.1543 82.4766 41.3496 82.4766C41.7246 82.4766 41.9121 81.9844 41.9121 81C41.9121 80.0234 41.7246 79.5352 41.3496 79.5352C41.1543 79.5352 41.0117 79.6562 40.9219 79.8984C40.8359 80.1367 40.793 80.5039 40.793 81ZM43.3887 80.9883C43.3887 81.8867 43.2148 82.5625 42.8672 83.0156C42.5195 83.4648 42.0098 83.6895 41.3379 83.6895C40.6934 83.6895 40.1953 83.459 39.8438 82.998C39.4922 82.5332 39.3164 81.8633 39.3164 80.9883C39.3164 79.2031 39.9902 78.3105 41.3379 78.3105C41.998 78.3105 42.5039 78.543 42.8555 79.0078C43.2109 79.4688 43.3887 80.1289 43.3887 80.9883ZM47.4199 78.4336L42.668 87H41.2617L46.0137 78.4336H47.4199ZM46.793 84.4219C46.793 84.918 46.8359 85.2891 46.9219 85.5352C47.0117 85.7773 47.1543 85.8984 47.3496 85.8984C47.7246 85.8984 47.9121 85.4062 47.9121 84.4219C47.9121 83.4453 47.7246 82.957 47.3496 82.957C47.1543 82.957 47.0117 83.0781 46.9219 83.3203C46.8359 83.5586 46.793 83.9258 46.793 84.4219ZM49.3887 84.4102C49.3887 85.3047 49.2148 85.9785 48.8672 86.4316C48.5195 86.8809 48.0098 87.1055 47.3379 87.1055C46.6934 87.1055 46.1953 86.875 45.8438 86.4141C45.4922 85.9492 45.3164 85.2812 45.3164 84.4102C45.3164 82.625 45.9902 81.7324 47.3379 81.7324C47.998 81.7324 48.5039 81.9648 48.8555 82.4297C49.2109 82.8906 49.3887 83.5508 49.3887 84.4102Z" fill="white"/>
</svg>
