<svg width="124" height="120" viewBox="0 0 124 120" fill="none" xmlns="http://www.w3.org/2000/svg">
<g clip-path="url(#clip0)">
<path d="M60.6752 119.669C52.7986 119.798 44.9737 118.375 37.6471 115.48C30.3206 112.586 23.6359 108.276 17.9748 102.798C12.3136 97.32 7.78694 90.781 4.65314 83.553C1.51934 76.3258 -0.160257 68.5518 -0.289757 60.6752C-0.419157 52.7986 1.00404 44.9737 3.89864 37.6471C6.79334 30.3205 11.1027 23.6359 16.5807 17.9747C22.0588 12.3136 28.5982 7.7869 35.8257 4.6531C43.0532 1.5192 50.8272 -0.160395 58.7038 -0.289795L59.6895 59.6895L60.6752 119.669Z" fill="#004DFF"/>
<path d="M62.6831 -0.261697C70.5596 -0.397397 78.3857 1.0195 85.7141 3.9083C93.0431 6.797 99.7311 11.101 105.397 16.5746C111.063 22.0481 115.594 28.5839 118.734 35.8088C121.874 43.0338 123.56 50.8064 123.695 58.6829C123.831 66.5594 122.414 74.3855 119.525 81.7144C116.637 89.043 112.333 95.731 106.859 101.397C101.386 107.062 94.8501 111.594 87.6251 114.734C80.4 117.874 72.6274 119.559 64.7509 119.695L63.717 59.7168L62.6831 -0.261697Z" fill="#FFAA00"/>
<path d="M85.8821 45.5273C86.7101 45.5273 87.3691 45.7598 87.8571 46.2246C88.3491 46.6895 88.5951 47.3262 88.5951 48.1348C88.5951 49.0918 88.3001 49.8281 87.7101 50.3438C87.1211 50.8594 86.2771 51.1172 85.1791 51.1172C84.2261 51.1172 83.4561 50.9629 82.8711 50.6543V49.0898C83.1791 49.2539 83.5391 49.3887 83.9491 49.4941C84.3591 49.5957 84.7481 49.6465 85.1151 49.6465C86.2201 49.6465 86.7731 49.1934 86.7731 48.2871C86.7731 47.4238 86.2011 46.9922 85.0561 46.9922C84.8491 46.9922 84.6211 47.0137 84.3711 47.0566C84.1211 47.0957 83.9171 47.1387 83.7611 47.1855L83.0401 46.7988L83.3631 42.4336H88.0091V43.9688H84.9511L84.7921 45.6504L84.9981 45.6094C85.2361 45.5547 85.5311 45.5273 85.8821 45.5273ZM95.5621 46.7168C95.5621 48.2129 95.3161 49.3203 94.8241 50.0391C94.3351 50.7578 93.5811 51.1172 92.5621 51.1172C91.5741 51.1172 90.8281 50.7461 90.3241 50.0039C89.8241 49.2617 89.5741 48.166 89.5741 46.7168C89.5741 45.2051 89.8181 44.0918 90.3061 43.377C90.7941 42.6582 91.5461 42.2988 92.5621 42.2988C93.5501 42.2988 94.2961 42.6738 94.8001 43.4238C95.3081 44.1738 95.5621 45.2715 95.5621 46.7168ZM91.3731 46.7168C91.3731 47.7676 91.4621 48.5215 91.6421 48.9785C91.8261 49.4316 92.1321 49.6582 92.5621 49.6582C92.9841 49.6582 93.2891 49.4277 93.4761 48.9668C93.6641 48.5059 93.7571 47.7559 93.7571 46.7168C93.7571 45.666 93.6621 44.9121 93.4701 44.4551C93.2831 43.9941 92.9801 43.7637 92.5621 43.7637C92.1361 43.7637 91.8311 43.9941 91.6481 44.4551C91.4641 44.9121 91.3731 45.666 91.3731 46.7168ZM97.8411 45C97.8411 45.4961 97.8841 45.8672 97.9701 46.1133C98.0601 46.3555 98.2031 46.4766 98.3981 46.4766C98.7731 46.4766 98.9601 45.9844 98.9601 45C98.9601 44.0234 98.7731 43.5352 98.3981 43.5352C98.2031 43.5352 98.0601 43.6562 97.9701 43.8984C97.8841 44.1367 97.8411 44.5039 97.8411 45ZM100.437 44.9883C100.437 45.8867 100.263 46.5625 99.9151 47.0156C99.5681 47.4648 99.0581 47.6895 98.3861 47.6895C97.7421 47.6895 97.2441 47.459 96.8921 46.998C96.5401 46.5332 96.3651 45.8633 96.3651 44.9883C96.3651 43.2031 97.0391 42.3105 98.3861 42.3105C99.0461 42.3105 99.5521 42.543 99.9041 43.0078C100.259 43.4688 100.437 44.1289 100.437 44.9883ZM104.468 42.4336L99.7161 51H98.3101L103.062 42.4336H104.468ZM103.841 48.4219C103.841 48.918 103.884 49.2891 103.97 49.5352C104.06 49.7773 104.203 49.8984 104.398 49.8984C104.773 49.8984 104.96 49.4062 104.96 48.4219C104.96 47.4453 104.773 46.957 104.398 46.957C104.203 46.957 104.06 47.0781 103.97 47.3203C103.884 47.5586 103.841 47.9258 103.841 48.4219ZM106.437 48.4102C106.437 49.3047 106.263 49.9785 105.915 50.4316C105.568 50.8809 105.058 51.1055 104.386 51.1055C103.742 51.1055 103.244 50.875 102.892 50.4141C102.54 49.9492 102.365 49.2812 102.365 48.4102C102.365 46.625 103.039 45.7324 104.386 45.7324C105.046 45.7324 105.552 45.9648 105.904 46.4297C106.259 46.8906 106.437 47.5508 106.437 48.4102Z" fill="white"/>
<path d="M22.834 74.5273C23.6621 74.5273 24.3203 74.7598 24.8086 75.2246C25.3008 75.6895 25.5469 76.3262 25.5469 77.1348C25.5469 78.0918 25.252 78.8281 24.6621 79.3438C24.0723 79.8594 23.2285 80.1172 22.1309 80.1172C21.1777 80.1172 20.4082 79.9629 19.8223 79.6543V78.0898C20.1309 78.2539 20.4902 78.3887 20.9004 78.4941C21.3105 78.5957 21.6992 78.6465 22.0664 78.6465C23.1719 78.6465 23.7246 78.1934 23.7246 77.2871C23.7246 76.4238 23.1523 75.9922 22.0078 75.9922C21.8008 75.9922 21.5723 76.0137 21.3223 76.0566C21.0723 76.0957 20.8691 76.1387 20.7129 76.1855L19.9922 75.7988L20.3145 71.4336H24.9609V72.9688H21.9023L21.7441 74.6504L21.9492 74.6094C22.1875 74.5547 22.4824 74.5273 22.834 74.5273ZM32.5137 75.7168C32.5137 77.2129 32.2676 78.3203 31.7754 79.0391C31.2871 79.7578 30.5332 80.1172 29.5137 80.1172C28.5254 80.1172 27.7793 79.7461 27.2754 79.0039C26.7754 78.2617 26.5254 77.166 26.5254 75.7168C26.5254 74.2051 26.7695 73.0918 27.2578 72.377C27.7461 71.6582 28.498 71.2988 29.5137 71.2988C30.502 71.2988 31.248 71.6738 31.752 72.4238C32.2598 73.1738 32.5137 74.2715 32.5137 75.7168ZM28.3242 75.7168C28.3242 76.7676 28.4141 77.5215 28.5938 77.9785C28.7773 78.4316 29.084 78.6582 29.5137 78.6582C29.9355 78.6582 30.2402 78.4277 30.4277 77.9668C30.6152 77.5059 30.709 76.7559 30.709 75.7168C30.709 74.666 30.6133 73.9121 30.4219 73.4551C30.2344 72.9941 29.9316 72.7637 29.5137 72.7637C29.0879 72.7637 28.7832 72.9941 28.5996 73.4551C28.416 73.9121 28.3242 74.666 28.3242 75.7168ZM34.793 74C34.793 74.4961 34.8359 74.8672 34.9219 75.1133C35.0117 75.3555 35.1543 75.4766 35.3496 75.4766C35.7246 75.4766 35.9121 74.9844 35.9121 74C35.9121 73.0234 35.7246 72.5352 35.3496 72.5352C35.1543 72.5352 35.0117 72.6562 34.9219 72.8984C34.8359 73.1367 34.793 73.5039 34.793 74ZM37.3887 73.9883C37.3887 74.8867 37.2148 75.5625 36.8672 76.0156C36.5195 76.4648 36.0098 76.6895 35.3379 76.6895C34.6934 76.6895 34.1953 76.459 33.8438 75.998C33.4922 75.5332 33.3164 74.8633 33.3164 73.9883C33.3164 72.2031 33.9902 71.3105 35.3379 71.3105C35.998 71.3105 36.5039 71.543 36.8555 72.0078C37.2109 72.4688 37.3887 73.1289 37.3887 73.9883ZM41.4199 71.4336L36.668 80H35.2617L40.0137 71.4336H41.4199ZM40.793 77.4219C40.793 77.918 40.8359 78.2891 40.9219 78.5352C41.0117 78.7773 41.1543 78.8984 41.3496 78.8984C41.7246 78.8984 41.9121 78.4062 41.9121 77.4219C41.9121 76.4453 41.7246 75.957 41.3496 75.957C41.1543 75.957 41.0117 76.0781 40.9219 76.3203C40.8359 76.5586 40.793 76.9258 40.793 77.4219ZM43.3887 77.4102C43.3887 78.3047 43.2148 78.9785 42.8672 79.4316C42.5195 79.8809 42.0098 80.1055 41.3379 80.1055C40.6934 80.1055 40.1953 79.875 39.8438 79.4141C39.4922 78.9492 39.3164 78.2812 39.3164 77.4102C39.3164 75.625 39.9902 74.7324 41.3379 74.7324C41.998 74.7324 42.5039 74.9648 42.8555 75.4297C43.2109 75.8906 43.3887 76.5508 43.3887 77.4102Z" fill="white"/>
</g>
<defs>
<clipPath id="clip0">
<rect width="124" height="120" fill="white"/>
</clipPath>
</defs>
</svg>
