<svg width="119" height="119" viewBox="0 0 119 119" fill="none" xmlns="http://www.w3.org/2000/svg">
<circle cx="59.5" cy="59.5" r="59.5" fill="#004DFF"/>
<path d="M119 59.5C119 73.0251 114.392 86.1466 105.936 96.7019C97.4792 107.257 85.6789 114.617 72.4795 117.567C59.2802 120.517 45.4695 118.883 33.3236 112.933C21.1777 106.982 11.4215 97.0717 5.66279 84.8339C-0.0959032 72.596 -1.51338 58.7614 1.64399 45.61C4.80135 32.4586 12.3451 20.7754 23.032 12.4858C33.7189 4.19617 46.9112 -0.2051 60.4346 0.00734022C73.958 0.219781 87.0055 5.03325 97.4267 13.6545L59.5 59.5H119Z" fill="#004DFF"/>
<path d="M48.7656 64H46.9551V59.043L46.9727 58.2285L47.002 57.3379C46.7012 57.6387 46.4922 57.8359 46.375 57.9297L45.3906 58.7207L44.5176 57.6309L47.2773 55.4336H48.7656V64ZM57.0859 59.7168C57.0859 61.2129 56.8398 62.3203 56.3477 63.0391C55.8594 63.7578 55.1055 64.1172 54.0859 64.1172C53.0977 64.1172 52.3516 63.7461 51.8477 63.0039C51.3477 62.2617 51.0977 61.166 51.0977 59.7168C51.0977 58.2051 51.3418 57.0918 51.8301 56.377C52.3184 55.6582 53.0703 55.2988 54.0859 55.2988C55.0742 55.2988 55.8203 55.6738 56.3242 56.4238C56.832 57.1738 57.0859 58.2715 57.0859 59.7168ZM52.8965 59.7168C52.8965 60.7676 52.9863 61.5215 53.166 61.9785C53.3496 62.4316 53.6562 62.6582 54.0859 62.6582C54.5078 62.6582 54.8125 62.4277 55 61.9668C55.1875 61.5059 55.2812 60.7559 55.2812 59.7168C55.2812 58.666 55.1855 57.9121 54.9941 57.4551C54.8066 56.9941 54.5039 56.7637 54.0859 56.7637C53.6602 56.7637 53.3555 56.9941 53.1719 57.4551C52.9883 57.9121 52.8965 58.666 52.8965 59.7168ZM63.9414 59.7168C63.9414 61.2129 63.6953 62.3203 63.2031 63.0391C62.7148 63.7578 61.9609 64.1172 60.9414 64.1172C59.9531 64.1172 59.207 63.7461 58.7031 63.0039C58.2031 62.2617 57.9531 61.166 57.9531 59.7168C57.9531 58.2051 58.1973 57.0918 58.6855 56.377C59.1738 55.6582 59.9258 55.2988 60.9414 55.2988C61.9297 55.2988 62.6758 55.6738 63.1797 56.4238C63.6875 57.1738 63.9414 58.2715 63.9414 59.7168ZM59.752 59.7168C59.752 60.7676 59.8418 61.5215 60.0215 61.9785C60.2051 62.4316 60.5117 62.6582 60.9414 62.6582C61.3633 62.6582 61.668 62.4277 61.8555 61.9668C62.043 61.5059 62.1367 60.7559 62.1367 59.7168C62.1367 58.666 62.041 57.9121 61.8496 57.4551C61.6621 56.9941 61.3594 56.7637 60.9414 56.7637C60.5156 56.7637 60.2109 56.9941 60.0273 57.4551C59.8438 57.9121 59.752 58.666 59.752 59.7168ZM66.2207 58C66.2207 58.4961 66.2637 58.8672 66.3496 59.1133C66.4395 59.3555 66.582 59.4766 66.7773 59.4766C67.1523 59.4766 67.3398 58.9844 67.3398 58C67.3398 57.0234 67.1523 56.5352 66.7773 56.5352C66.582 56.5352 66.4395 56.6562 66.3496 56.8984C66.2637 57.1367 66.2207 57.5039 66.2207 58ZM68.8164 57.9883C68.8164 58.8867 68.6426 59.5625 68.2949 60.0156C67.9473 60.4648 67.4375 60.6895 66.7656 60.6895C66.1211 60.6895 65.623 60.459 65.2715 59.998C64.9199 59.5332 64.7441 58.8633 64.7441 57.9883C64.7441 56.2031 65.418 55.3105 66.7656 55.3105C67.4258 55.3105 67.9316 55.543 68.2832 56.0078C68.6387 56.4688 68.8164 57.1289 68.8164 57.9883ZM72.8477 55.4336L68.0957 64H66.6895L71.4414 55.4336H72.8477ZM72.2207 61.4219C72.2207 61.918 72.2637 62.2891 72.3496 62.5352C72.4395 62.7773 72.582 62.8984 72.7773 62.8984C73.1523 62.8984 73.3398 62.4062 73.3398 61.4219C73.3398 60.4453 73.1523 59.957 72.7773 59.957C72.582 59.957 72.4395 60.0781 72.3496 60.3203C72.2637 60.5586 72.2207 60.9258 72.2207 61.4219ZM74.8164 61.4102C74.8164 62.3047 74.6426 62.9785 74.2949 63.4316C73.9473 63.8809 73.4375 64.1055 72.7656 64.1055C72.1211 64.1055 71.623 63.875 71.2715 63.4141C70.9199 62.9492 70.7441 62.2812 70.7441 61.4102C70.7441 59.625 71.418 58.7324 72.7656 58.7324C73.4258 58.7324 73.9316 58.9648 74.2832 59.4297C74.6387 59.8906 74.8164 60.5508 74.8164 61.4102Z" fill="white"/>
</svg>
